<?xml version="1.0" encoding="UTF-8" standalone="no"?>
<svg
   xmlns:dc="http://purl.org/dc/elements/1.1/"
   xmlns:cc="http://creativecommons.org/ns#"
   xmlns:rdf="http://www.w3.org/1999/02/22-rdf-syntax-ns#"
   xmlns:svg="http://www.w3.org/2000/svg"
   xmlns="http://www.w3.org/2000/svg"
   xmlns:sodipodi="http://sodipodi.sourceforge.net/DTD/sodipodi-0.dtd"
   xmlns:inkscape="http://www.inkscape.org/namespaces/inkscape"
   width="116.16991"
   height="57"
   viewBox="0 0 338.62817 166.21884"
   id="dzen_design_ru_logo"
   version="1.1"
   sodipodi:docname="ninja.svg"
   inkscape:version="0.92.1 r15371">
  <metadata
     id="metadata49">
    <rdf:RDF>
      <cc:Work
         rdf:about="">
        <dc:format>image/svg+xml</dc:format>
        <dc:type
           rdf:resource="http://purl.org/dc/dcmitype/StillImage" />
      </cc:Work>
    </rdf:RDF>
  </metadata>
  <defs
     id="defs47" />
  <sodipodi:namedview
     pagecolor="#ffffff"
     bordercolor="#666666"
     borderopacity="1"
     objecttolerance="10"
     gridtolerance="10"
     guidetolerance="10"
     inkscape:pageopacity="0"
     inkscape:pageshadow="2"
     inkscape:window-width="1920"
     inkscape:window-height="1018"
     id="namedview45"
     showgrid="false"
     inkscape:zoom="1"
     inkscape:cx="58.084953"
     inkscape:cy="28.5"
     inkscape:window-x="-8"
     inkscape:window-y="-8"
     inkscape:window-maximized="1"
     inkscape:current-layer="dzen_design_ru_logo" />
  <path
     style="opacity:1;fill:#395780;fill-opacity:1;fill-rule:evenodd;stroke:none;stroke-width:1px;stroke-linecap:butt;stroke-linejoin:miter;stroke-opacity:1"
     d="m 102.69697,0 c -35.263906,27.287033 21.29568,26.58612 1.75,54.740232 a 37,37 0 0 0 -20.257816,-6.05664 37,37 0 0 0 -37,37 37,37 0 0 0 6.02343,20.177738 c -11.46153,6.41658 -8.09287,14.31169 -1.13281,24.77734 -21.11555,7.70418 -50.2519696,24.89155 -52.12499961,32.25 -1.19082999,4.67832 29.81528961,4.35086 30.37499961,-0.5 l 0.375,-3.25 c 21.68786,-4.77167 38.42854,-8.15449 64.875,-7.875 -1.93047,2.19913 -7.65122,10.6369 -3.5,11.75 8.743936,2.34459 31.166156,2.17866 32.375006,-2 2.38967,-8.26046 -10.89828,-2.15052 -6.625,-7.375 11.08675,-11.56969 17.47457,-21.51986 -6.125,-27.25 0.92915,-5.15725 -1.3497,-8.37402 -5.20508,-11.24609 a 37,37 0 0 0 14.68946,-29.458988 37,37 0 0 0 -8.69336,-23.82422 c 8.72512,-4.89677 18.00675,-10.24082 25.0332,-16.14258 12.05308,-10.12378 12.03382,-26.034089 -9.02149,-25.917964 9.23325,14.863474 3.71291,21.050184 -15.62109,34.587894 6.04641,-11.59246 6.37131,-16.80093 -2.92187,-31.210941 C 104.36027,15.426224 98.854924,8.441289 102.69697,0 Z"
     id="path3380" />
  <path
     style="fill:#ffffff;fill-opacity:1;fill-rule:evenodd;stroke:none;stroke-width:1px;stroke-linecap:butt;stroke-linejoin:miter;stroke-opacity:1"
     d="m 55.329774,90.388672 c 2.46654,25.626708 41.2034,34.863028 59.375006,7.125 -26.470596,1.66807 -45.227186,-0.46684 -59.375006,-7.125 z"
     id="path4193" />
  <path
     style="fill:#ffffff;fill-opacity:1;fill-rule:evenodd;stroke:none;stroke-width:0.5;stroke-linecap:butt;stroke-linejoin:miter;stroke-miterlimit:4;stroke-dasharray:none;stroke-opacity:1"
     d="m 64.534274,116.82801 c 7.08123,7.15677 18.14237,10.24643 30.6731,3.97855 -13.3906,4.92049 -23.81457,1.59989 -30.6731,-3.97855 z"
     id="path4195" />
  <path
     style="fill:#ffffff;fill-opacity:1;fill-rule:evenodd;stroke:none;stroke-width:0.5;stroke-linecap:butt;stroke-linejoin:miter;stroke-miterlimit:4;stroke-dasharray:none;stroke-opacity:1"
     d="M 54.714256,77.543057 C 58.723572,64.736828 67.381643,56.606835 79.070292,51.109287 66.414814,55.333563 57.22116,63.138901 54.714256,77.543057 Z"
     id="path4191" />
  <path
     style="fill:#ffffff;fill-opacity:1;fill-rule:evenodd;stroke:none;stroke-width:0.5;stroke-linecap:butt;stroke-linejoin:miter;stroke-miterlimit:4;stroke-dasharray:none;stroke-opacity:1"
     d="m 63.806744,120.73903 c -2.52591,4.68501 -1.47735,10.37046 2.82842,15.29118 -3.53398,-5.90478 -3.71787,-11.50131 -2.82842,-15.29118 z"
     id="path4197" />
  <path
     style="fill:#ffffff;fill-opacity:1;fill-rule:evenodd;stroke:none;stroke-width:0.5;stroke-linecap:butt;stroke-linejoin:miter;stroke-miterlimit:4;stroke-dasharray:none;stroke-opacity:1"
     d="m 94.654274,128.87075 c -5.472126,9.51795 -12.901671,6.47552 -19.35705,14.58408 2.38764,-8.23844 13.62529,-6.59935 19.35705,-14.58408 z"
     id="path4199" />
  <path
     style="fill:#ffffff;fill-opacity:1;fill-rule:evenodd;stroke:none;stroke-width:0.5;stroke-linecap:butt;stroke-linejoin:miter;stroke-miterlimit:4;stroke-dasharray:none;stroke-opacity:1"
     d="m 111.34007,127.25387 c -2.34719,9.4533 -8.89279,11.43878 -24.293476,17.88922 12.015497,-7.66614 18.682436,-7.61673 24.293476,-17.88922 z"
     id="path4201" />
  <path
     style="fill:#ffffff;fill-opacity:1;fill-rule:evenodd;stroke:none;stroke-width:0.5;stroke-linecap:butt;stroke-linejoin:miter;stroke-miterlimit:4;stroke-dasharray:none;stroke-opacity:1"
     d="m 96.156874,150.96784 c 5.845426,-2.40212 11.555346,-3.24786 17.235736,-4.24264 -6.65675,-0.18093 -12.46417,1.12448 -17.235736,4.24264 z"
     id="path4203" />
  <g
     id="g4249"
     style="fill:#132b4b;fill-opacity:1"
     transform="translate(-257.67022,-67.361328)">
    <ellipse
       ry="2.9230766"
       rx="3"
       cy="171.6266"
       cx="328.8125"
       id="path4215"
       style="opacity:1;fill:#132b4b;fill-opacity:1;stroke:none;stroke-width:0.5;stroke-miterlimit:4;stroke-dasharray:none;stroke-opacity:1" />
    <path
       id="path4217"
       d="m 320.5625,164.875 c 4.82346,0.98996 11.46288,2.02176 14.1875,5.375 l -4.0625,1.875 c -2.3848,-2.45952 -6.10856,-5.6006 -10.125,-7.25 z"
       style="fill:#132b4b;fill-opacity:1;fill-rule:evenodd;stroke:none;stroke-width:0.5;stroke-linecap:butt;stroke-linejoin:miter;stroke-miterlimit:4;stroke-dasharray:none;stroke-opacity:1" />
    <ellipse
       style="opacity:1;fill:#132b4b;fill-opacity:1;stroke:none;stroke-width:0.5;stroke-miterlimit:4;stroke-dasharray:none;stroke-opacity:1"
       id="ellipse4219"
       cx="350.06247"
       cy="173.0016"
       rx="3"
       ry="2.9230766" />
    <path
       style="fill:#132b4b;fill-opacity:1;fill-rule:evenodd;stroke:none;stroke-width:0.5;stroke-linecap:butt;stroke-linejoin:miter;stroke-miterlimit:4;stroke-dasharray:none;stroke-opacity:1"
       d="m 362.3125,167.875 c -4.46639,1.06932 -13.5954,-0.90064 -17.8125,2.9375 l 3.4375,2.625 c 2.3848,-2.45952 10.35856,-3.9131 14.375,-5.5625 z"
       id="path4221" />
  </g>
  <path
     style="fill:#46628a;fill-opacity:1;fill-rule:evenodd;stroke:none;stroke-width:0.5;stroke-linecap:butt;stroke-linejoin:miter;stroke-miterlimit:4;stroke-dasharray:none;stroke-opacity:1"
     d="m 70.753134,149.38366 c 3.22186,3.20332 6.53614,6.36913 9.44405,9.73074 1.03669,1.19844 -1.67228,4.06064 -2.91764,2.98067 -3.2125,-2.78586 -6.42501,-6.17607 -9.63751,-9.43372 z"
     id="path4225" />
  <path
     id="path4278"
     d="m 62.158114,144.49919 a 7.1206878,8.6849422 45 0 0 -2.4662,3.97215 7.1206878,8.6849422 45 0 0 1.58611,6.4013 7.1206878,8.6849422 45 0 0 11.17499,-1.10524 7.1206878,8.6849422 45 0 0 2.46767,-3.97361 7.1206878,8.6849422 45 0 0 -1.58472,-6.39987 7.1206878,8.6849422 45 0 0 -11.17785,1.10527 z"
     style="opacity:1;fill:#aebcd1;fill-opacity:1;stroke:none;stroke-width:0.5;stroke-miterlimit:4;stroke-dasharray:none;stroke-opacity:1" />
  <path
     style="opacity:1;fill:#789ac8;fill-opacity:1;stroke:none;stroke-width:0.5;stroke-miterlimit:4;stroke-dasharray:none;stroke-opacity:1"
     d="m 61.758114,144.09886 a 7.1206878,8.6849422 45 0 0 -2.4662,3.97215 7.1206878,8.6849422 45 0 0 1.58611,6.4013 7.1206878,8.6849422 45 0 0 11.17499,-1.10524 7.1206878,8.6849422 45 0 0 2.46767,-3.97361 7.1206878,8.6849422 45 0 0 -1.58472,-6.39987 7.1206878,8.6849422 45 0 0 -11.17785,1.10527 z"
     id="ellipse4236" />
  <path
     style="fill:#cccccc;fill-opacity:1;fill-rule:evenodd;stroke:none;stroke-width:0.40000001;stroke-linecap:butt;stroke-linejoin:miter;stroke-miterlimit:4;stroke-dasharray:none;stroke-opacity:1"
     d="m 69.079774,147.63867 c -22.89748,-25.19253 -47.88387,-62.764298 -54.125,-73.124998 -3.9947,-6.63147 -14.32241961,16.74706 50.5,76.124998 1.79191,1.64141 4.79796,-0.84385 3.625,-3 z"
     id="path4227" />
  <path
     style="fill:#f2f2f2;fill-opacity:1;fill-rule:evenodd;stroke:none;stroke-width:0.5;stroke-linecap:butt;stroke-linejoin:miter;stroke-miterlimit:4;stroke-dasharray:none;stroke-opacity:1"
     d="m 13.320004,73.445312 c -3.7666796,0.84404 -4.5848496,25.23766 52.13477,77.193358 0.36693,0.33611 0.78459,0.49123 1.20703,0.51953 -29.79366,-32.24673 -51.26692,-58.072528 -53.16992,-77.712888 -0.0572,0.002 -0.11577,-0.0126 -0.17188,0 z"
     id="path4229" />
  <g
     id="text4572"
     style="font-style:normal;font-weight:normal;font-size:116.64479828px;line-height:1.25;font-family:sans-serif;letter-spacing:0px;word-spacing:0px;fill:#000000;fill-opacity:1;stroke:none;stroke-width:2.91612005"
     aria-label="Разработано в">
    <path
       id="path4567"
       style="font-style:normal;font-variant:normal;font-weight:normal;font-stretch:normal;font-size:31.10527992px;font-family:'PF Din Text Cond Pro';-inkscape-font-specification:'PF Din Text Cond Pro';font-variant-ligatures:normal;font-variant-caps:normal;font-variant-numeric:normal;font-feature-settings:normal;text-align:start;writing-mode:lr-tb;text-anchor:start;fill:#ffffff;fill-opacity:0.5098038;stroke-width:2.91612005"
       d="m 174.10529,35.584446 q 0,1.399737 -0.40436,2.612843 -0.40437,1.213106 -1.21311,2.115159 -0.77763,0.902053 -1.99074,1.430843 -1.2131,0.497685 -2.83058,0.497685 h -3.17274 v 8.305109 h -3.546 V 28.896811 h 6.53211 q 1.52416,0 2.73726,0.404368 1.21311,0.404369 2.08406,1.244211 0.87095,0.808738 1.33753,2.084054 0.46657,1.244211 0.46657,2.955002 z m -3.51489,-0.06221 q 0,-1.617474 -0.77763,-2.457317 -0.77764,-0.870948 -2.36401,-0.870948 h -2.955 v 6.718741 h 2.98611 q 1.58637,0 2.3329,-0.902053 0.77763,-0.933159 0.77763,-2.488423 z" />
    <path
       id="path4569"
       style="font-style:normal;font-variant:normal;font-weight:normal;font-stretch:normal;font-size:31.10527992px;font-family:'PF Din Text Cond Pro';-inkscape-font-specification:'PF Din Text Cond Pro';font-variant-ligatures:normal;font-variant-caps:normal;font-variant-numeric:normal;font-feature-settings:normal;text-align:start;writing-mode:lr-tb;text-anchor:start;fill:#ffffff;fill-opacity:0.5098038;stroke-width:2.91612005"
       d="m 182.407,50.546085 v -1.182 l -0.12442,-0.06221 q -0.55989,0.746527 -1.49305,1.088685 -0.93316,0.311053 -1.89742,0.311053 -2.27069,0 -3.35937,-1.275317 -1.08869,-1.275316 -1.08869,-3.35937 0,-0.995369 0.31105,-1.835211 0.31106,-0.870948 0.96427,-1.493054 0.65321,-0.653211 1.64858,-1.026474 0.99537,-0.373263 2.364,-0.373263 h 2.67505 v -1.399738 q 0,-0.777632 -0.52879,-1.306422 -0.52879,-0.559895 -1.74189,-0.559895 -0.83985,0 -1.55527,0.311053 -0.71542,0.279947 -1.11979,1.057579 -0.12442,-0.06221 -0.49768,-0.279947 -0.37327,-0.248842 -0.80874,-0.497685 -0.40437,-0.248842 -0.77763,-0.466579 -0.34216,-0.248842 -0.46658,-0.342158 0.71542,-1.493053 2.11516,-2.177369 1.39974,-0.684317 3.17274,-0.684317 1.2131,0 2.23958,0.248843 1.02647,0.217737 1.773,0.777632 0.77763,0.559895 1.2131,1.493053 0.43548,0.902053 0.43548,2.270686 v 10.762426 z m 0,-6.594319 h -2.45732 q -1.02647,0 -1.61747,0.497684 -0.55989,0.46658 -0.55989,1.399738 0,0.715422 0.49768,1.244211 0.52879,0.52879 1.71079,0.52879 0.99537,0 1.71079,-0.497684 0.71542,-0.52879 0.71542,-1.679686 z" />
    <path
       id="path4571"
       style="font-style:normal;font-variant:normal;font-weight:normal;font-stretch:normal;font-size:31.10527992px;font-family:'PF Din Text Cond Pro';-inkscape-font-specification:'PF Din Text Cond Pro';font-variant-ligatures:normal;font-variant-caps:normal;font-variant-numeric:normal;font-feature-settings:normal;text-align:start;writing-mode:lr-tb;text-anchor:start;fill:#ffffff;fill-opacity:0.5098038;stroke-width:2.91612005"
       d="m 196.63475,42.583134 q 1.21311,0.528789 1.64858,1.399737 0.43547,0.839843 0.43547,1.990738 0,2.270686 -1.52415,3.514897 -1.52416,1.213106 -4.1059,1.213106 -4.19921,0 -5.47453,-3.079423 l 2.67505,-1.399738 q 0.27995,0.715422 1.05758,1.119791 0.77764,0.373263 1.71079,0.373263 0.99537,0 1.58637,-0.497685 0.62211,-0.528789 0.62211,-1.399737 0,-0.995369 -0.591,-1.461948 -0.5599,-0.46658 -1.46195,-0.46658 h -1.71079 v -2.550632 h 1.83521 q 0.87095,0 1.33753,-0.46658 0.46658,-0.466579 0.46658,-1.275316 0,-0.715422 -0.52879,-1.150896 -0.52879,-0.435473 -1.46195,-0.435473 -0.80874,0 -1.55526,0.404368 -0.74653,0.373264 -1.11979,1.026474 l -2.42622,-1.493053 q 0.62211,-1.430843 2.02185,-2.17737 1.39973,-0.777632 3.20384,-0.777632 2.64395,0 3.95037,1.150896 1.33753,1.11979 1.33753,3.203844 0,0.839842 -0.43548,1.773001 -0.40436,0.933158 -1.49305,1.461948 z" />
    <path
       id="path4573"
       style="font-style:normal;font-variant:normal;font-weight:normal;font-stretch:normal;font-size:31.10527992px;font-family:'PF Din Text Cond Pro';-inkscape-font-specification:'PF Din Text Cond Pro';font-variant-ligatures:normal;font-variant-caps:normal;font-variant-numeric:normal;font-feature-settings:normal;text-align:start;writing-mode:lr-tb;text-anchor:start;fill:#ffffff;fill-opacity:0.5098038;stroke-width:2.91612005"
       d="m 204.8203,36.455394 q 0.591,-0.777632 1.39974,-1.119791 0.83984,-0.342158 1.71079,-0.342158 1.61747,0 2.55063,0.715422 0.93316,0.684316 1.43084,1.835211 0.49769,1.11979 0.62211,2.550633 0.15553,1.399738 0.15553,2.799475 0,1.399738 -0.18664,2.799476 -0.15552,1.399737 -0.68431,2.519527 -0.49769,1.11979 -1.46195,1.804107 -0.96426,0.684316 -2.55063,0.684316 -0.77763,0 -1.61748,-0.342158 -0.80873,-0.342158 -1.36863,-1.05758 -0.0311,0 -0.0622,0.03111 0,0 -0.0311,0 v 7.434162 H 201.3054 V 35.148972 h 3.42158 v 1.275316 q 0.0311,0 0.0311,0.03111 0.0311,0 0.0622,0 z m 2.11516,10.980163 q 0.74653,0 1.182,-0.373263 0.46658,-0.404369 0.68432,-1.05758 0.24884,-0.65321 0.31105,-1.461948 0.0933,-0.808737 0.0933,-1.64858 0,-0.964263 -0.0933,-1.804106 -0.0622,-0.870948 -0.31105,-1.493053 -0.21774,-0.653211 -0.65321,-0.995369 -0.43548,-0.373263 -1.182,-0.373263 -0.80874,0 -1.27532,0.404368 -0.43548,0.404369 -0.65321,1.088685 -0.21774,0.684316 -0.27995,1.555264 -0.0311,0.839842 -0.0311,1.741896 0,0.746526 0.0622,1.524158 0.0622,0.777632 0.27994,1.430843 0.21774,0.622106 0.65321,1.05758 0.43548,0.404368 1.21311,0.404368 z" />
    <path
       id="path4575"
       style="font-style:normal;font-variant:normal;font-weight:normal;font-stretch:normal;font-size:31.10527992px;font-family:'PF Din Text Cond Pro';-inkscape-font-specification:'PF Din Text Cond Pro';font-variant-ligatures:normal;font-variant-caps:normal;font-variant-numeric:normal;font-feature-settings:normal;text-align:start;writing-mode:lr-tb;text-anchor:start;fill:#ffffff;fill-opacity:0.5098038;stroke-width:2.91612005"
       d="m 222.26064,50.546085 v -1.182 l -0.12442,-0.06221 q -0.55989,0.746527 -1.49305,1.088685 -0.93316,0.311053 -1.89742,0.311053 -2.27069,0 -3.35937,-1.275317 -1.08869,-1.275316 -1.08869,-3.35937 0,-0.995369 0.31105,-1.835211 0.31106,-0.870948 0.96427,-1.493054 0.65321,-0.653211 1.64858,-1.026474 0.99537,-0.373263 2.364,-0.373263 h 2.67505 v -1.399738 q 0,-0.777632 -0.52879,-1.306422 -0.52879,-0.559895 -1.74189,-0.559895 -0.83984,0 -1.55527,0.311053 -0.71542,0.279947 -1.11979,1.057579 -0.12442,-0.06221 -0.49768,-0.279947 -0.37326,-0.248842 -0.80874,-0.497685 -0.40437,-0.248842 -0.77763,-0.466579 -0.34216,-0.248842 -0.46658,-0.342158 0.71542,-1.493053 2.11516,-2.177369 1.39974,-0.684317 3.17274,-0.684317 1.2131,0 2.23958,0.248843 1.02647,0.217737 1.773,0.777632 0.77763,0.559895 1.21311,1.493053 0.43547,0.902053 0.43547,2.270686 v 10.762426 z m 0,-6.594319 h -2.45731 q -1.02648,0 -1.61748,0.497684 -0.55989,0.46658 -0.55989,1.399738 0,0.715422 0.49768,1.244211 0.52879,0.52879 1.71079,0.52879 0.99537,0 1.71079,-0.497684 0.71542,-0.52879 0.71542,-1.679686 z" />
    <path
       id="path4577"
       style="font-style:normal;font-variant:normal;font-weight:normal;font-stretch:normal;font-size:31.10527992px;font-family:'PF Din Text Cond Pro';-inkscape-font-specification:'PF Din Text Cond Pro';font-variant-ligatures:normal;font-variant-caps:normal;font-variant-numeric:normal;font-feature-settings:normal;text-align:start;writing-mode:lr-tb;text-anchor:start;fill:#ffffff;fill-opacity:0.5098038;stroke-width:2.91612005"
       d="m 234.62208,35.708867 q 1.49305,0 2.42621,0.52879 0.93316,0.528789 1.55526,1.461948 0.62211,0.964263 0.87095,2.426212 0.24884,1.461948 0.24884,3.048317 0,1.835212 -0.27995,3.048317 -0.27994,1.182001 -0.90205,2.084054 -0.71542,1.368633 -2.02184,1.928528 -1.30642,0.528789 -2.79948,0.528789 -1.71079,0 -2.79947,-0.559895 -1.08869,-0.591 -1.71079,-1.555264 -0.65321,-0.995369 -0.87095,-2.643949 -0.21774,-1.648579 -0.21774,-3.88816 0,-0.622105 0.0311,-1.275316 0.0311,-0.653211 0.0311,-1.244211 0.0311,-0.591 0.0622,-1.088685 0.0311,-0.497684 0.0933,-0.808737 0.12442,-1.617475 0.43547,-2.830581 0.34216,-1.244211 0.87095,-2.146264 0.52879,-0.933158 1.27532,-1.586369 0.77763,-0.653211 1.83521,-1.150896 0.55989,-0.279947 1.08868,-0.497684 0.5599,-0.217737 1.1509,-0.435474 0.6221,-0.217737 1.33753,-0.466579 0.71542,-0.279948 1.67968,-0.653211 l 1.08869,2.519528 q -0.71543,0.342158 -1.30643,0.591 -0.591,0.248842 -1.08868,0.466579 -0.49769,0.186632 -0.93316,0.373263 -0.43547,0.186632 -0.90205,0.373264 -1.64858,0.746526 -2.42621,1.804106 -0.74653,1.026474 -0.87095,2.861686 l 0.0622,0.0311 q 0.65321,-0.684316 1.49305,-0.964264 0.87095,-0.279947 1.49306,-0.279947 z m -0.65322,3.141633 q -0.6221,0 -1.11979,0.279948 -0.49768,0.279947 -0.80873,0.902053 -0.24884,0.497684 -0.37327,1.306422 -0.0933,0.808737 -0.0933,2.115159 0,0.870947 0.0622,1.586369 0.0622,0.684316 0.27995,1.213106 0.24884,0.622105 0.74652,0.995369 0.49769,0.342158 1.30642,0.342158 0.71543,0 1.24422,-0.342158 0.52879,-0.373264 0.77763,-1.088685 0.18663,-0.466579 0.24884,-1.213106 0.0622,-0.746527 0.0622,-1.617475 0,-0.964263 -0.0933,-1.804106 -0.0622,-0.870948 -0.21773,-1.306422 -0.24884,-0.684316 -0.74653,-1.026474 Q 234.7776,38.8505 233.96886,38.8505 Z" />
    <path
       id="path4579"
       style="font-style:normal;font-variant:normal;font-weight:normal;font-stretch:normal;font-size:31.10527992px;font-family:'PF Din Text Cond Pro';-inkscape-font-specification:'PF Din Text Cond Pro';font-variant-ligatures:normal;font-variant-caps:normal;font-variant-numeric:normal;font-feature-settings:normal;text-align:start;writing-mode:lr-tb;text-anchor:start;fill:#ffffff;fill-opacity:0.5098038;stroke-width:2.91612005"
       d="m 247.9745,34.931235 q 1.99074,0 3.14164,0.808737 1.15089,0.777632 1.74189,1.959633 0.43548,0.870948 0.591,2.30179 0.15553,1.399738 0.15553,2.892791 0,1.244212 -0.15553,2.612844 -0.15552,1.368632 -0.49768,2.208475 -0.34216,0.870948 -0.90205,1.461948 -0.52879,0.559895 -1.24422,0.933158 -0.68431,0.342159 -1.49305,0.497685 -0.80874,0.155526 -1.64858,0.155526 -1.67968,0 -2.83058,-0.622105 -1.11979,-0.622106 -1.7419,-1.64858 -0.55989,-0.902053 -0.80873,-2.332896 -0.21774,-1.430843 -0.21774,-3.234949 0,-1.399738 0.12442,-2.70616 0.15553,-1.337527 0.49769,-2.146264 0.6221,-1.461948 1.92852,-2.301791 1.30643,-0.839842 3.35937,-0.839842 z m -0.0622,3.172738 q -0.68431,0 -1.24421,0.342158 -0.55989,0.342159 -0.80874,1.05758 -0.21773,0.559895 -0.31105,1.493053 -0.0622,0.902054 -0.0622,2.084054 0,0.902053 0.0311,1.710791 0.0622,0.808737 0.27994,1.399737 0.52879,1.399738 2.02185,1.399738 0.71542,0 1.30642,-0.342158 0.591,-0.373264 0.83984,-1.430843 0.12442,-0.435474 0.15553,-1.275317 0.0622,-0.839842 0.0622,-1.897422 0,-0.933158 -0.0622,-1.71079 -0.0622,-0.808737 -0.24884,-1.337527 -0.52879,-1.493054 -1.95964,-1.493054 z" />
    <path
       id="path4581"
       style="font-style:normal;font-variant:normal;font-weight:normal;font-stretch:normal;font-size:31.10527992px;font-family:'PF Din Text Cond Pro';-inkscape-font-specification:'PF Din Text Cond Pro';font-variant-ligatures:normal;font-variant-caps:normal;font-variant-numeric:normal;font-feature-settings:normal;text-align:start;writing-mode:lr-tb;text-anchor:start;fill:#ffffff;fill-opacity:0.5098038;stroke-width:2.91612005"
       d="M 262.13567,38.010658 V 50.546085 H 258.7763 V 38.010658 h -3.88816 v -2.861686 h 11.1979 v 2.861686 z" />
    <path
       id="path4583"
       style="font-style:normal;font-variant:normal;font-weight:normal;font-stretch:normal;font-size:31.10527992px;font-family:'PF Din Text Cond Pro';-inkscape-font-specification:'PF Din Text Cond Pro';font-variant-ligatures:normal;font-variant-caps:normal;font-variant-numeric:normal;font-feature-settings:normal;text-align:start;writing-mode:lr-tb;text-anchor:start;fill:#ffffff;fill-opacity:0.5098038;stroke-width:2.91612005"
       d="m 274.32553,50.546085 v -1.182 l -0.12442,-0.06221 q -0.55989,0.746527 -1.49305,1.088685 -0.93316,0.311053 -1.89743,0.311053 -2.27068,0 -3.35937,-1.275317 -1.08868,-1.275316 -1.08868,-3.35937 0,-0.995369 0.31105,-1.835211 0.31106,-0.870948 0.96427,-1.493054 0.65321,-0.653211 1.64858,-1.026474 0.99537,-0.373263 2.364,-0.373263 h 2.67505 v -1.399738 q 0,-0.777632 -0.52879,-1.306422 -0.52879,-0.559895 -1.74189,-0.559895 -0.83985,0 -1.55527,0.311053 -0.71542,0.279947 -1.11979,1.057579 -0.12442,-0.06221 -0.49768,-0.279947 -0.37327,-0.248842 -0.80874,-0.497685 -0.40437,-0.248842 -0.77763,-0.466579 -0.34216,-0.248842 -0.46658,-0.342158 0.71542,-1.493053 2.11516,-2.177369 1.39974,-0.684317 3.17274,-0.684317 1.2131,0 2.23958,0.248843 1.02647,0.217737 1.773,0.777632 0.77763,0.559895 1.2131,1.493053 0.43548,0.902053 0.43548,2.270686 v 10.762426 z m 0,-6.594319 h -2.45732 q -1.02647,0 -1.61747,0.497684 -0.5599,0.46658 -0.5599,1.399738 0,0.715422 0.49769,1.244211 0.52879,0.52879 1.71079,0.52879 0.99537,0 1.71079,-0.497684 0.71542,-0.52879 0.71542,-1.679686 z" />
    <path
       id="path4585"
       style="font-style:normal;font-variant:normal;font-weight:normal;font-stretch:normal;font-size:31.10527992px;font-family:'PF Din Text Cond Pro';-inkscape-font-specification:'PF Din Text Cond Pro';font-variant-ligatures:normal;font-variant-caps:normal;font-variant-numeric:normal;font-feature-settings:normal;text-align:start;writing-mode:lr-tb;text-anchor:start;fill:#ffffff;fill-opacity:0.5098038;stroke-width:2.91612005"
       d="m 288.49107,50.546085 v -6.438793 h -4.54137 v 6.438793 h -3.39048 V 35.148972 h 3.39048 v 6.252161 h 4.54137 v -6.252161 h 3.39048 v 15.397113 z" />
    <path
       id="path4587"
       style="font-style:normal;font-variant:normal;font-weight:normal;font-stretch:normal;font-size:31.10527992px;font-family:'PF Din Text Cond Pro';-inkscape-font-specification:'PF Din Text Cond Pro';font-variant-ligatures:normal;font-variant-caps:normal;font-variant-numeric:normal;font-feature-settings:normal;text-align:start;writing-mode:lr-tb;text-anchor:start;fill:#ffffff;fill-opacity:0.5098038;stroke-width:2.91612005"
       d="m 300.52541,34.931235 q 1.99074,0 3.14164,0.808737 1.15089,0.777632 1.74189,1.959633 0.43548,0.870948 0.591,2.30179 0.15553,1.399738 0.15553,2.892791 0,1.244212 -0.15553,2.612844 -0.15552,1.368632 -0.49768,2.208475 -0.34216,0.870948 -0.90205,1.461948 -0.52879,0.559895 -1.24422,0.933158 -0.68431,0.342159 -1.49305,0.497685 -0.80874,0.155526 -1.64858,0.155526 -1.67968,0 -2.83058,-0.622105 -1.11979,-0.622106 -1.74189,-1.64858 -0.5599,-0.902053 -0.80874,-2.332896 -0.21774,-1.430843 -0.21774,-3.234949 0,-1.399738 0.12442,-2.70616 0.15553,-1.337527 0.49769,-2.146264 0.6221,-1.461948 1.92852,-2.301791 1.30643,-0.839842 3.35937,-0.839842 z m -0.0622,3.172738 q -0.68431,0 -1.24421,0.342158 -0.55989,0.342159 -0.80873,1.05758 -0.21774,0.559895 -0.31106,1.493053 -0.0622,0.902054 -0.0622,2.084054 0,0.902053 0.0311,1.710791 0.0622,0.808737 0.27994,1.399737 0.52879,1.399738 2.02185,1.399738 0.71542,0 1.30642,-0.342158 0.591,-0.373264 0.83984,-1.430843 0.12442,-0.435474 0.15553,-1.275317 0.0622,-0.839842 0.0622,-1.897422 0,-0.933158 -0.0622,-1.71079 -0.0622,-0.808737 -0.24884,-1.337527 -0.52879,-1.493054 -1.95964,-1.493054 z" />
    <path
       id="path4589"
       style="font-style:normal;font-variant:normal;font-weight:normal;font-stretch:normal;font-size:31.10527992px;font-family:'PF Din Text Cond Pro';-inkscape-font-specification:'PF Din Text Cond Pro';font-variant-ligatures:normal;font-variant-caps:normal;font-variant-numeric:normal;font-feature-settings:normal;text-align:start;writing-mode:lr-tb;text-anchor:start;fill:#ffffff;fill-opacity:0.5098038;stroke-width:2.91612005"
       d="m 327.20695,45.849188 q 0,1.182001 -0.40437,2.084054 -0.40437,0.870948 -1.11979,1.461948 -0.68432,0.559895 -1.67969,0.870948 -0.96426,0.279947 -2.11516,0.279947 h -5.91 V 35.148972 h 5.81669 q 2.64395,0 3.88816,1.150895 1.27531,1.150896 1.27531,3.141633 0,0.964264 -0.43547,1.804107 -0.40437,0.839842 -1.39974,1.275316 1.11979,0.435474 1.58637,1.368632 0.49769,0.933159 0.49769,1.959633 z m -7.83853,-1.990738 v 3.701528 h 2.20847 q 0.99537,0 1.58637,-0.466579 0.62211,-0.497684 0.62211,-1.461948 0,-0.808737 -0.52879,-1.275316 -0.49769,-0.497685 -1.58637,-0.497685 z m 0,-5.847792 v 3.328265 h 2.05294 q 0.96427,0 1.52416,-0.342159 0.591,-0.373263 0.591,-1.337527 0,-0.839842 -0.591,-1.244211 -0.55989,-0.404368 -1.52416,-0.404368 z" />
  </g>
  <g
     id="text4538"
     style="font-style:normal;font-weight:normal;font-size:54.43423843px;line-height:46.65791702px;font-family:sans-serif;letter-spacing:0px;word-spacing:0px;fill:#000000;fill-opacity:1;stroke:none;stroke-width:2.91612005"
     aria-label="Titanio Design">
    <path
       id="path4546"
       style="font-style:italic;font-variant:normal;font-weight:normal;font-stretch:condensed;font-size:69.98687744px;line-height:46.65791702px;font-family:'Yama Moto Condensed Italic';-inkscape-font-specification:'Yama Moto Condensed Italic, Italic Condensed';font-variant-ligatures:normal;font-variant-caps:normal;font-variant-numeric:normal;font-feature-settings:normal;text-align:start;writing-mode:lr-tb;text-anchor:start;fill:#f2f2f2;fill-opacity:1;stroke-width:2.91612005"
       d="m 163.81723,97.071791 h 5.59895 q -0.07,-0.699868 -0.41992,-1.189777 -0.34994,-0.489908 -0.76986,-0.909829 -0.34993,-0.419921 -0.62988,-0.839842 -0.20996,-0.419922 0,-1.049804 0.83984,-2.44954 1.95963,-4.619134 1.18978,-2.169593 2.1696,-4.969068 1.0498,-3.149409 1.53971,-5.878898 0.48991,-2.799475 1.53971,-5.878897 0.27995,-0.90983 1.0498,-1.609698 0.76986,-0.699869 1.67969,-1.11979 0.90983,-0.489909 1.74967,-0.699869 0.90983,-0.209961 1.53971,-0.209961 0.41992,0 0.5599,0.06999 0.13997,0.06999 0.13997,0.349934 0.07,0.209961 0,0.699869 0,0.419921 0.07,1.189777 l 0.27994,1.469725 h 20.08624 q -2.86946,8.258451 -5.38899,13.997375 -2.51953,5.668937 -5.10904,9.378242 -2.58952,3.709304 -5.52897,5.738927 -2.86946,2.02962 -6.50878,3.00943 -3.63931,0.97982 -8.18846,1.11979 -4.47916,0.20996 -10.28807,0.20996 z m 15.74705,-16.166968 q -1.39974,3.849278 -3.28939,7.978504 -1.81965,4.129225 -4.40917,7.698556 h 0.76986 q 0.55989,0 0.97981,0.06999 0.41992,0 0.97982,0 h 0.76986 q 3.21939,0 5.73892,-0.839842 2.51953,-0.839843 4.54915,-2.729489 2.0996,-1.889645 3.7093,-4.829094 1.67969,-3.009436 3.14941,-7.348622 z" />
    <path
       id="path4548"
       style="font-style:italic;font-variant:normal;font-weight:normal;font-stretch:condensed;font-size:69.98687744px;line-height:46.65791702px;font-family:'Yama Moto Condensed Italic';-inkscape-font-specification:'Yama Moto Condensed Italic, Italic Condensed';font-variant-ligatures:normal;font-variant-caps:normal;font-variant-numeric:normal;font-feature-settings:normal;text-align:start;writing-mode:lr-tb;text-anchor:start;fill:#f2f2f2;fill-opacity:1;stroke-width:2.91612005"
       d="m 221.72153,101.48096 q 0.07,-0.27994 0.07,-1.25976 0,-1.049802 -0.07,-2.44954 0,-1.399737 -0.07,-3.009436 0,-1.679685 -0.07,-3.149409 0,-1.469724 0,-2.659501 0.07,-1.189777 0.20996,-1.679685 h -4.75911 l -2.79948,8.398425 h -9.44822 q 5.03905,-4.829095 10.28807,-8.888334 5.24901,-4.129225 10.70799,-6.788727 0.20996,-0.06999 0.90983,-0.349934 0.69987,-0.279948 1.46972,-0.559895 0.76986,-0.349935 1.46973,-0.629882 0.69987,-0.349934 0.90983,-0.559895 0.27994,-0.419921 0.76985,-1.329751 0.5599,-0.979816 1.11979,-2.029619 0.62988,-1.049803 1.04981,-1.959633 0.4899,-0.979816 0.62988,-1.32975 -2.09961,0 -3.70931,0.349934 -1.53971,0.349934 -3.07942,0.979816 -1.46972,0.629882 -3.14941,1.469725 -1.67968,0.839842 -3.91926,1.749672 -0.34994,0.139973 -0.76986,-0.06999 -0.34993,-0.279948 -0.34993,-0.279948 l 1.32975,-3.849278 h -16.93683 l -5.03905,14.697244 h 5.59895 l 2.51952,-7.418609 h 8.60839 q -0.62988,0.559895 -2.30957,2.02962 -1.60969,1.469724 -3.42935,3.149409 -1.81966,1.679685 -3.49935,3.219397 -1.6097,1.469724 -2.23958,2.099606 -1.39974,1.399737 -2.44954,2.589514 -0.97981,1.189777 -1.95963,2.169594 -0.90983,0.979816 -1.95963,1.679685 -0.97982,0.629881 -2.44954,0.979816 l -2.65951,7.768546 h 22.04587 q 0.13997,0.34993 0.83984,0.97981 0.69987,0.62989 1.04981,0.62989 0.41992,0.13997 1.25976,-0.48991 0.90983,-0.5599 1.81966,-1.39974 0.90983,-0.83984 1.6097,-1.6097 0.69987,-0.83984 0.83984,-1.18978 z" />
    <path
       id="path4550"
       style="font-style:italic;font-variant:normal;font-weight:normal;font-stretch:condensed;font-size:69.98687744px;line-height:46.65791702px;font-family:'Yama Moto Condensed Italic';-inkscape-font-specification:'Yama Moto Condensed Italic, Italic Condensed';font-variant-ligatures:normal;font-variant-caps:normal;font-variant-numeric:normal;font-feature-settings:normal;text-align:start;writing-mode:lr-tb;text-anchor:start;fill:#f2f2f2;fill-opacity:1;stroke-width:2.91612005"
       d="m 236.69763,68.307185 h 5.66893 q -2.16959,7.418609 -2.93944,12.807598 -0.76986,5.319003 0.27994,8.818347 1.11979,3.499344 4.2692,5.388989 3.2194,1.889646 8.95832,2.379554 l -2.23958,6.298817 q -0.13997,0 -0.83984,0.20996 -0.69987,0.20996 -1.74967,0.48991 -1.0498,0.20996 -1.67969,0.27995 h -0.41992 q -5.8789,0 -8.95832,-3.07942 -3.07942,-3.149414 -3.98925,-8.258456 -0.83984,-5.179029 0.20996,-11.757795 1.0498,-6.648753 3.42936,-13.577454 z m 7.06867,16.79685 0.34994,-1.11979 q 0.41992,-0.139973 1.74967,-0.979816 1.32975,-0.909829 2.86946,-1.889646 1.6097,-0.979816 3.07942,-1.749672 1.46973,-0.769855 2.09961,-0.769855 1.32975,0 1.67968,1.32975 0.41993,1.259764 0.69987,3.079423 -1.25976,1.259764 -2.93945,2.729488 -1.60969,1.469725 -3.35937,2.729488 -1.74967,1.259764 -3.42935,2.099607 -1.6097,0.839842 -2.93945,0.839842 -0.69987,0 -0.90983,-0.699868 -0.13997,-0.769856 0,-1.819659 0.20996,-1.049803 0.48991,-2.099607 0.34993,-1.049803 0.55989,-1.679685 z m -1.46972,-9.868149 q 0.41992,-1.189777 1.6097,-2.169594 1.25976,-1.049803 2.72948,-1.889645 1.46973,-0.90983 2.86947,-1.609698 1.46972,-0.699869 2.30956,-1.259764 0.20996,0.419921 0.5599,1.049803 0.34993,0.629882 0.55989,1.399737 0.27995,0.699869 0.34994,1.539712 0.07,0.839842 -0.27995,1.679685 -0.41992,1.259764 -1.81966,2.309567 -1.39974,1.049803 -3.07942,1.889645 -1.6097,0.769856 -3.2194,1.259764 -1.53971,0.419922 -2.23958,0.419922 -0.69987,0 -0.97981,-0.419922 -0.20996,-0.419921 -0.20996,-1.049803 0.07,-0.699869 0.27994,-1.539711 0.27995,-0.839843 0.5599,-1.609698 z" />
    <path
       id="path4552"
       style="font-style:italic;font-variant:normal;font-weight:normal;font-stretch:condensed;font-size:69.98687744px;line-height:46.65791702px;font-family:'Yama Moto Condensed Italic';-inkscape-font-specification:'Yama Moto Condensed Italic, Italic Condensed';font-variant-ligatures:normal;font-variant-caps:normal;font-variant-numeric:normal;font-feature-settings:normal;text-align:start;writing-mode:lr-tb;text-anchor:start;fill:#f2f2f2;fill-opacity:1;stroke-width:2.91612005"
       d="m 255.34804,99.80128 q 0.07,-0.279948 0.20996,-0.629882 0.13997,-0.419922 0.20996,-0.489908 2.79947,-2.239581 5.45897,-4.899082 2.65951,-2.659501 3.98926,-6.508779 0.76985,-2.379554 0.90983,-3.639318 0.13997,-1.259764 -0.13998,-1.819659 -0.27995,-0.559895 -0.90983,-0.629882 -0.55989,-0.139974 -1.18977,-0.06999 -0.62989,0 -1.25977,-0.06999 -0.62988,-0.139973 -0.97981,-0.769855 -0.27995,-0.629882 -0.20996,-1.889646 0.13997,-1.329751 0.90982,-3.779291 1.18978,-0.489908 2.86947,-1.189777 1.67968,-0.769856 3.35937,-1.399738 1.74967,-0.699869 3.28938,-1.11979 1.53971,-0.489908 2.51953,-0.489908 h 0.41992 q 0.07,0.489908 0.13997,1.889646 0.13998,1.32975 0.20996,2.869462 0.13998,1.469724 0.20996,2.799475 0.13998,1.329751 0.27995,1.819659 -0.07,0.349934 0,1.259763 0.13998,0.90983 0.27995,1.959633 0.20996,1.049803 0.34993,1.959633 0.20996,0.839842 0.34994,1.11979 0.07,0.629882 0.27995,1.539711 0.20996,0.909829 0.41992,1.749672 0.20996,0.839842 0.41992,1.469724 0.20996,0.559895 0.20996,0.559895 h 0.55989 q 0.76986,-2.23958 1.18978,-3.219396 0.41992,-1.049803 0.62988,-1.749672 0.27995,-0.699869 0.48991,-1.609698 0.20996,-0.979816 0.41992,-2.939449 l -0.13997,-2.099606 q -0.07,-0.06999 -0.20996,-0.559895 -0.07,-0.489909 -0.20996,-0.979817 -0.07,-0.559895 -0.13998,-0.979816 0,-0.489908 0,-0.559895 0.13998,-0.419921 0.62988,-1.329751 0.48991,-0.909829 1.04981,-1.889645 0.62988,-0.979817 1.18977,-1.819659 0.5599,-0.90983 0.83985,-1.259764 h 0.41992 q 1.25976,0 1.95963,1.259764 0.76986,1.259764 1.0498,3.079422 0.34994,1.749672 0.27995,3.779292 -0.07,1.959632 -0.41992,3.35937 -0.41992,1.259764 -1.0498,3.149409 -0.5599,1.819659 -1.11979,3.569331 -0.5599,1.749672 -0.97982,3.009436 -0.34993,1.259764 -0.34993,1.259764 h -4.2692 q 0.76985,0.909829 1.18977,1.679685 0.41993,0.699869 0.48991,1.469724 0.07,0.699869 -0.13997,1.539712 -0.13998,0.839842 -0.48991,1.959632 -0.55989,1.609698 -1.0498,2.799478 -0.48991,1.11979 -1.74967,2.6595 -1.67969,-0.5599 -2.93945,-2.16959 -1.25977,-1.6097 -2.23958,-3.639322 -0.90983,-2.02962 -1.6097,-4.129226 -0.69987,-2.099606 -1.18978,-3.639318 -1.11979,1.679685 -2.86946,3.989252 -1.74967,2.309567 -3.77929,4.47916 -1.95963,2.169594 -3.98925,3.709304 -1.95964,1.46973 -3.49935,1.46973 -0.62988,0 -0.90983,-0.5599 -0.27995,-0.55989 -0.27995,-1.32975 0,-0.76986 0.13998,-1.67969 0.20996,-0.90982 0.48991,-1.67968 z" />
    <path
       id="path4554"
       style="font-style:italic;font-variant:normal;font-weight:normal;font-stretch:condensed;font-size:69.98687744px;line-height:46.65791702px;font-family:'Yama Moto Condensed Italic';-inkscape-font-specification:'Yama Moto Condensed Italic, Italic Condensed';font-variant-ligatures:normal;font-variant-caps:normal;font-variant-numeric:normal;font-feature-settings:normal;text-align:start;writing-mode:lr-tb;text-anchor:start;fill:#f2f2f2;fill-opacity:1;stroke-width:2.91612005"
       d="m 163.81723,150.15018 h 5.59895 q -0.07,-0.69987 -0.41992,-1.18977 -0.34994,-0.48991 -0.76986,-0.90983 -0.34993,-0.41993 -0.62988,-0.83985 -0.20996,-0.41992 0,-1.0498 0.83984,-2.44954 1.95963,-4.61913 1.18978,-2.1696 2.1696,-4.96907 1.0498,-3.14941 1.53971,-5.8789 0.48991,-2.79947 1.53971,-5.8789 0.27995,-0.90983 1.0498,-1.6097 0.76986,-0.69986 1.67969,-1.11979 0.90983,-0.4899 1.74967,-0.69986 0.90983,-0.20996 1.53971,-0.20996 0.41992,0 0.5599,0.07 0.13997,0.07 0.13997,0.34994 0.07,0.20996 0,0.69987 0,0.41992 0.07,1.18977 l 0.27994,1.46973 h 20.08624 q -2.86946,8.25845 -5.38899,13.99737 -2.51953,5.66894 -5.10904,9.37824 -2.58952,3.70931 -5.52897,5.73893 -2.86946,2.02962 -6.50878,3.00943 -3.63931,0.97982 -8.18846,1.11979 -4.47916,0.20996 -10.28807,0.20996 z m 15.74705,-16.16697 q -1.39974,3.84928 -3.28939,7.97851 -1.81965,4.12922 -4.40917,7.69855 h 0.76986 q 0.55989,0 0.97981,0.07 0.41992,0 0.97982,0 h 0.76986 q 3.21939,0 5.73892,-0.83984 2.51953,-0.83984 4.54915,-2.72949 2.0996,-1.88965 3.7093,-4.82909 1.67969,-3.00944 3.14941,-7.34863 z" />
    <path
       id="path4556"
       style="font-style:italic;font-variant:normal;font-weight:normal;font-stretch:condensed;font-size:69.98687744px;line-height:46.65791702px;font-family:'Yama Moto Condensed Italic';-inkscape-font-specification:'Yama Moto Condensed Italic, Italic Condensed';font-variant-ligatures:normal;font-variant-caps:normal;font-variant-numeric:normal;font-feature-settings:normal;text-align:start;writing-mode:lr-tb;text-anchor:start;fill:#f2f2f2;fill-opacity:1;stroke-width:2.91612005"
       d="m 204.57475,121.38558 h 5.66893 q -2.16959,7.4186 -2.93945,12.80759 -0.76985,5.31901 0.27995,8.81835 1.11979,3.49934 4.2692,5.38899 3.2194,1.88965 8.95832,2.37955 l -2.23958,6.29882 q -0.13997,0 -0.83984,0.20996 -0.69987,0.20996 -1.74967,0.48991 -1.04981,0.20996 -1.67969,0.27995 H 213.883 q -5.8789,0 -8.95832,-3.07942 -3.07942,-3.14941 -3.98925,-8.25845 -0.83985,-5.17903 0.20996,-11.7578 1.0498,-6.64875 3.42936,-13.57745 z m 7.06867,16.79685 0.34993,-1.11979 q 0.41993,-0.13998 1.74968,-0.97982 1.32975,-0.90983 2.86946,-1.88965 1.6097,-0.97981 3.07942,-1.74967 1.46972,-0.76985 2.09961,-0.76985 1.32975,0 1.67968,1.32975 0.41992,1.25976 0.69987,3.07942 -1.25976,1.25976 -2.93945,2.72949 -1.6097,1.46972 -3.35937,2.72949 -1.74967,1.25976 -3.42936,2.0996 -1.60969,0.83985 -2.93944,0.83985 -0.69987,0 -0.90983,-0.69987 -0.13998,-0.76986 0,-1.81966 0.20996,-1.04981 0.4899,-2.09961 0.34994,-1.0498 0.5599,-1.67968 z m -1.46972,-9.86815 q 0.41992,-1.18978 1.60969,-2.1696 1.25977,-1.0498 2.72949,-1.88964 1.46973,-0.90983 2.86946,-1.6097 1.46973,-0.69987 2.30957,-1.25976 0.20996,0.41992 0.5599,1.0498 0.34993,0.62988 0.55989,1.39974 0.27995,0.69987 0.34993,1.53971 0.07,0.83984 -0.27994,1.67968 -0.41992,1.25977 -1.81966,2.30957 -1.39974,1.0498 -3.07942,1.88965 -1.6097,0.76985 -3.2194,1.25976 -1.53971,0.41992 -2.23958,0.41992 -0.69987,0 -0.97982,-0.41992 -0.20996,-0.41992 -0.20996,-1.0498 0.07,-0.69987 0.27995,-1.53972 0.27995,-0.83984 0.5599,-1.60969 z" />
    <path
       id="path4558"
       style="font-style:italic;font-variant:normal;font-weight:normal;font-stretch:condensed;font-size:69.98687744px;line-height:46.65791702px;font-family:'Yama Moto Condensed Italic';-inkscape-font-specification:'Yama Moto Condensed Italic, Italic Condensed';font-variant-ligatures:normal;font-variant-caps:normal;font-variant-numeric:normal;font-feature-settings:normal;text-align:start;writing-mode:lr-tb;text-anchor:start;fill:#f2f2f2;fill-opacity:1;stroke-width:2.91612005"
       d="m 221.8954,154.55936 q 0.07,-0.20996 0.69987,-1.25977 0.69987,-1.0498 1.67969,-2.44954 0.97981,-1.39974 2.0996,-3.00943 1.18978,-1.67969 2.23958,-3.14941 1.04981,-1.53972 1.81966,-2.65951 0.76986,-1.18977 1.04981,-1.67968 h 4.7591 l -2.79947,8.39842 h 9.44823 q 0.34993,-2.30956 -0.27995,-4.33918 -0.62988,-2.09961 -1.88965,-3.84928 -1.18977,-1.74967 -2.79947,-3.14941 -1.53971,-1.46972 -3.07942,-2.44954 -1.53972,-1.0498 -2.79948,-1.6097 -1.25976,-0.55989 -1.88965,-0.62988 -0.34993,0 -0.27994,-1.11979 0.13997,-1.18978 0.34993,-2.58951 0.27995,-1.46973 0.5599,-2.79948 0.34993,-1.32975 0.4899,-1.67968 2.09961,0 3.2194,0.34993 1.18978,0.34993 2.02962,0.90983 0.90983,0.55989 1.81966,1.39974 0.90983,0.76985 2.51953,1.67968 0.27994,0.13998 0.83984,-0.07 0.55989,-0.27994 0.55989,-0.27994 l 1.32976,-3.84928 h 16.93682 l -5.03906,14.69724 h -5.59895 l 2.51953,-7.41861 h -8.60838 q 0.27994,0.5599 0.90983,2.02962 0.69986,1.46973 1.32975,3.14941 0.69986,1.67969 1.25976,3.2194 0.62988,1.46972 0.83984,2.09961 0.41992,1.39973 0.62988,2.58951 0.20996,1.18978 0.48991,2.16959 0.34994,0.97982 0.90983,1.67969 0.5599,0.62988 1.74967,0.97981 l -2.6595,7.76855 h -22.04586 q -0.20996,0.13997 -0.62989,0.41992 -0.41992,0.27995 -0.90983,0.55989 -0.41992,0.27995 -0.83984,0.41993 -0.41992,0.20996 -0.62988,0.20996 -0.55989,0.13997 -1.0498,-0.48991 -0.41992,-0.5599 -0.76986,-1.39974 -0.27995,-0.83984 -0.48991,-1.6097 -0.13997,-0.83984 0,-1.18977 z" />
    <path
       id="path4560"
       style="font-style:italic;font-variant:normal;font-weight:normal;font-stretch:condensed;font-size:69.98687744px;line-height:46.65791702px;font-family:'Yama Moto Condensed Italic';-inkscape-font-specification:'Yama Moto Condensed Italic, Italic Condensed';font-variant-ligatures:normal;font-variant-caps:normal;font-variant-numeric:normal;font-feature-settings:normal;text-align:start;writing-mode:lr-tb;text-anchor:start;fill:#f2f2f2;fill-opacity:1;stroke-width:2.91612005"
       d="m 251.32161,155.95909 2.72949,-7.90851 h 5.59895 l 4.96906,-14.69725 h -4.7591 l 2.93945,-8.39842 h 4.7591 l 1.53971,-2.58952 h 5.59895 l -0.83984,2.58952 h 4.68912 l -2.93945,8.39842 h -4.68912 l -4.82909,14.06736 q 1.18978,0 2.30957,-0.41992 1.18977,-0.41992 2.44954,-0.41992 h 0.27994 q 0.20996,0.13998 0.48991,0.69987 0.27995,0.5599 0.5599,1.25976 0.27994,0.69987 0.4899,1.32975 0.20997,0.62989 0.20997,0.90983 -1.39974,1.39974 -3.14941,2.72949 -1.74968,1.25977 -3.63932,2.30957 -1.81966,1.0498 -3.56933,1.67968 -1.74967,0.62989 -3.07942,0.62989 -1.46973,0 -2.23958,-0.27995 -0.76986,-0.27995 -1.46973,-0.62988 -0.69987,-0.41992 -1.67968,-0.76986 -0.90983,-0.34993 -2.72949,-0.48991 z" />
    <path
       id="path4562"
       style="font-style:italic;font-variant:normal;font-weight:normal;font-stretch:condensed;font-size:69.98687744px;line-height:46.65791702px;font-family:'Yama Moto Condensed Italic';-inkscape-font-specification:'Yama Moto Condensed Italic, Italic Condensed';font-variant-ligatures:normal;font-variant-caps:normal;font-variant-numeric:normal;font-feature-settings:normal;text-align:start;writing-mode:lr-tb;text-anchor:start;fill:#f2f2f2;fill-opacity:1;stroke-width:2.91612005"
       d="m 282.4439,129.784 -0.48991,-1.11979 2.44954,-7.27863 h 26.03512 l -2.6595,7.76854 h -18.1266 q -0.27995,0.83984 -0.97982,3.07942 -0.62988,2.16959 -1.32975,4.61914 -0.62988,2.44954 -1.25976,4.61913 -0.5599,2.16959 -0.76986,3.00944 -0.5599,1.95963 0,3.00943 0.62988,0.97982 1.74967,1.46973 1.18978,0.41992 2.58952,0.55989 1.46972,0.07 2.51952,0.13997 l -2.86946,8.46842 q -5.8789,0 -8.60838,-1.81966 -2.65951,-1.81966 -3.07943,-5.38899 -0.34993,-3.56933 1.04981,-8.81835 1.46972,-5.319 3.77929,-12.31769 z m 10.28807,22.67575 q 0.76985,-2.23958 1.74967,-4.2692 1.0498,-2.09961 1.81966,-4.33919 h -9.23827 l 2.86946,-8.39842 h 9.44823 l 1.25977,-1.46973 q 0.13997,0 1.0498,-0.13997 0.97981,-0.13997 1.53971,-0.13997 0.34993,0 0.83984,0.07 0.48991,0 1.25977,0 0.76985,0 1.11979,0.13998 0.41992,0.07 0.4899,0.07 0.5599,0 1.32976,0.41992 0.83984,0.34994 0.76985,0.5599 l -2.93945,8.39843 -1.88964,1.11979 q -0.41992,0.76985 -1.46973,2.86946 -0.97981,2.0996 -2.30957,4.2692 -1.32975,2.16959 -2.72948,3.84928 -1.39974,1.67968 -2.6595,1.67968 -1.39974,0 -1.67969,-1.11979 -0.27995,-1.18978 -0.69987,-3.14941 z" />
    <path
       id="path4564"
       style="font-style:italic;font-variant:normal;font-weight:normal;font-stretch:condensed;font-size:69.98687744px;line-height:46.65791702px;font-family:'Yama Moto Condensed Italic';-inkscape-font-specification:'Yama Moto Condensed Italic, Italic Condensed';font-variant-ligatures:normal;font-variant-caps:normal;font-variant-numeric:normal;font-feature-settings:normal;text-align:start;writing-mode:lr-tb;text-anchor:start;fill:#f2f2f2;fill-opacity:1;stroke-width:2.91612005"
       d="m 306.06119,152.87967 q 0.07,-0.27995 0.20996,-0.62988 0.13997,-0.41992 0.20996,-0.48991 2.79947,-2.23958 5.45897,-4.89908 2.65951,-2.6595 3.98926,-6.50878 0.76985,-2.37955 0.90983,-3.63932 0.13997,-1.25976 -0.13998,-1.81966 -0.27995,-0.55989 -0.90983,-0.62988 -0.55989,-0.13997 -1.18977,-0.07 -0.62989,0 -1.25977,-0.07 -0.62988,-0.13998 -0.97981,-0.76986 -0.27995,-0.62988 -0.20996,-1.88964 0.13997,-1.32975 0.90982,-3.7793 1.18978,-0.4899 2.86947,-1.18977 1.67968,-0.76986 3.35937,-1.39974 1.74967,-0.69987 3.28938,-1.11979 1.53971,-0.48991 2.51953,-0.48991 h 0.41992 q 0.07,0.48991 0.13997,1.88965 0.13998,1.32975 0.20996,2.86946 0.13998,1.46972 0.20996,2.79947 0.13998,1.32976 0.27995,1.81966 -0.07,0.34994 0,1.25977 0.13998,0.90983 0.27995,1.95963 0.20996,1.0498 0.34993,1.95963 0.20996,0.83985 0.34994,1.11979 0.07,0.62988 0.27995,1.53971 0.20996,0.90983 0.41992,1.74968 0.20996,0.83984 0.41992,1.46972 0.20996,0.5599 0.20996,0.5599 h 0.55989 q 0.76986,-2.23958 1.18978,-3.2194 0.41992,-1.0498 0.62988,-1.74967 0.27995,-0.69987 0.48991,-1.6097 0.20996,-0.97982 0.41992,-2.93945 l -0.13997,-2.09961 q -0.07,-0.07 -0.20996,-0.55989 -0.07,-0.48991 -0.20996,-0.97982 -0.07,-0.55989 -0.13998,-0.97981 0,-0.48991 0,-0.5599 0.13998,-0.41992 0.62988,-1.32975 0.48991,-0.90983 1.04981,-1.88965 0.62988,-0.97981 1.18977,-1.81965 0.5599,-0.90983 0.83985,-1.25977 h 0.41992 q 1.25976,0 1.95963,1.25977 0.76986,1.25976 1.0498,3.07942 0.34994,1.74967 0.27995,3.77929 -0.07,1.95963 -0.41992,3.35937 -0.41992,1.25976 -1.0498,3.14941 -0.5599,1.81966 -1.11979,3.56933 -0.5599,1.74967 -0.97982,3.00944 -0.34993,1.25976 -0.34993,1.25976 h -4.2692 q 0.76985,0.90983 1.18977,1.67968 0.41993,0.69987 0.48991,1.46973 0.07,0.69987 -0.13997,1.53971 -0.13998,0.83984 -0.48991,1.95963 -0.55989,1.6097 -1.0498,2.79948 -0.48991,1.11979 -1.74967,2.6595 -1.67969,-0.5599 -2.93945,-2.16959 -1.25977,-1.6097 -2.23958,-3.63932 -0.90983,-2.02962 -1.6097,-4.12923 -0.69987,-2.0996 -1.18978,-3.63931 -1.11979,1.67968 -2.86946,3.98925 -1.74967,2.30956 -3.77929,4.47916 -1.95963,2.16959 -3.98925,3.7093 -1.95964,1.46973 -3.49935,1.46973 -0.62988,0 -0.90983,-0.5599 -0.27995,-0.55989 -0.27995,-1.32975 0,-0.76985 0.13998,-1.67968 0.20996,-0.90983 0.48991,-1.67969 z" />
  </g>
</svg>
